<?xml version="1.0"?>
<!-- Created by MetaPost 1.902 on 2016.06.29:0634 -->
<svg version="1.1" xmlns="http://www.w3.org/2000/svg" width="294.545471"
     height="286.545395" viewBox="0 0 294.545471 286.545395">
    <!-- Original BoundingBox: -7.272736 -7.272736 287.272736 279.272659 -->
    <path d="M67.000000 167.000076C120.332520 167.000076,173.667480 167.000076,227.000000 167.000076C227.000000 113.667557,227.000000 60.332596,227.000000 7.000076C173.667480 7.000076,120.332520 7.000076,67.000000 7.000076C67.000000 60.332596,67.000000 113.667557,67.000000 167.000076Z"
          style="stroke:rgb(0.000000%,0.000000%,0.000000%); stroke-width: 14.545456;stroke-linecap: round;stroke-linejoin: round;stroke-miterlimit: 10.000000;fill: none;"></path>
    <path d="M96.090912 137.909164L197.909088 137.909164L197.909088 36.090988L96.090912 36.090988Z"
          style="stroke:rgb(100.000000%,100.000000%,100.000000%); stroke-width: 14.545456;fill: rgb(100.000000%,100.000000%,100.000000%);"></path>
    <path d="M7.000000 279.000000C100.331909 279.000000,193.668091 279.000000,287.000000 279.000000L287.000000 199.000000C193.668091 199.000000,100.331909 199.000000,7.000000 199.000000Z"
          style="stroke:rgb(0.000000%,0.000000%,0.000000%); stroke-width: 14.545456;stroke-linecap: round;stroke-linejoin: round;stroke-miterlimit: 10.000000;fill: none;"></path>
    <path d="M32.974030 255.628632l0 0"
          style="stroke:rgb(0.000000%,0.000000%,0.000000%); stroke-width: 11.428574;stroke-linecap: round;stroke-linejoin: round;stroke-miterlimit: 10.000000;fill: none;"></path>
    <path d="M32.974030 238.828583l0 0"
          style="stroke:rgb(0.000000%,0.000000%,0.000000%); stroke-width: 11.428574;stroke-linecap: round;stroke-linejoin: round;stroke-miterlimit: 10.000000;fill: none;"></path>
    <path d="M32.974030 222.028534l0 0"
          style="stroke:rgb(0.000000%,0.000000%,0.000000%); stroke-width: 11.428574;stroke-linecap: round;stroke-linejoin: round;stroke-miterlimit: 10.000000;fill: none;"></path>
    <path d="M49.774078 255.628632l0 0"
          style="stroke:rgb(0.000000%,0.000000%,0.000000%); stroke-width: 11.428574;stroke-linecap: round;stroke-linejoin: round;stroke-miterlimit: 10.000000;fill: none;"></path>
    <path d="M49.774078 238.828583l0 0"
          style="stroke:rgb(0.000000%,0.000000%,0.000000%); stroke-width: 11.428574;stroke-linecap: round;stroke-linejoin: round;stroke-miterlimit: 10.000000;fill: none;"></path>
    <path d="M49.774078 222.028534l0 0"
          style="stroke:rgb(0.000000%,0.000000%,0.000000%); stroke-width: 11.428574;stroke-linecap: round;stroke-linejoin: round;stroke-miterlimit: 10.000000;fill: none;"></path>
    <path d="M66.574127 255.628632l0 0"
          style="stroke:rgb(0.000000%,0.000000%,0.000000%); stroke-width: 11.428574;stroke-linecap: round;stroke-linejoin: round;stroke-miterlimit: 10.000000;fill: none;"></path>
    <path d="M66.574127 238.828583l0 0"
          style="stroke:rgb(0.000000%,0.000000%,0.000000%); stroke-width: 11.428574;stroke-linecap: round;stroke-linejoin: round;stroke-miterlimit: 10.000000;fill: none;"></path>
    <path d="M66.574127 222.028534l0 0"
          style="stroke:rgb(0.000000%,0.000000%,0.000000%); stroke-width: 11.428574;stroke-linecap: round;stroke-linejoin: round;stroke-miterlimit: 10.000000;fill: none;"></path>
    <path d="M180.333313 227.571411L180.333313 239.000000L191.761902 239.000000L258.428574 239.000000L258.428574 227.571411L246.999985 227.571411Z"
          style="fill: rgb(0.000000%,0.000000%,0.000000%);stroke: none;"></path>
    <path d="M121.750000 99.000031L171.750000 99.000031L171.750000 49.000031L121.750000 49.000031Z"
          style="stroke:rgb(100.000000%,84.313965%,0.000000%); stroke-width: 4.545456;stroke-linecap: round;stroke-linejoin: round;stroke-miterlimit: 10.000000;fill: none;"></path>
    <path d="M130.840912 89.909119L162.659088 89.909119L162.659088 58.090942L130.840912 58.090942Z"
          style="stroke:rgb(0.000000%,0.000000%,0.000000%); stroke-width: 4.545456;fill: rgb(0.000000%,0.000000%,0.000000%);"></path>
    <path d="M103.000000 134.000000L190.500000 134.000000L190.500000 109.000000L103.000000 109.000000Z"
          style="stroke:rgb(100.000000%,84.313965%,0.000000%); stroke-width: 4.545456;stroke-linecap: round;stroke-linejoin: round;stroke-miterlimit: 10.000000;fill: none;"></path>
    <path d="M111.116882 126.696457l0 0"
          style="stroke:rgb(100.000000%,84.313965%,0.000000%); stroke-width: 3.571426;stroke-linecap: round;stroke-linejoin: round;stroke-miterlimit: 10.000000;fill: none;"></path>
    <path d="M111.116882 121.446442l0 0"
          style="stroke:rgb(100.000000%,84.313965%,0.000000%); stroke-width: 3.571426;stroke-linecap: round;stroke-linejoin: round;stroke-miterlimit: 10.000000;fill: none;"></path>
    <path d="M111.116882 116.196426l0 0"
          style="stroke:rgb(100.000000%,84.313965%,0.000000%); stroke-width: 3.571426;stroke-linecap: round;stroke-linejoin: round;stroke-miterlimit: 10.000000;fill: none;"></path>
    <path d="M116.366898 126.696457l0 0"
          style="stroke:rgb(100.000000%,84.313965%,0.000000%); stroke-width: 3.571426;stroke-linecap: round;stroke-linejoin: round;stroke-miterlimit: 10.000000;fill: none;"></path>
    <path d="M116.366898 121.446442l0 0"
          style="stroke:rgb(100.000000%,84.313965%,0.000000%); stroke-width: 3.571426;stroke-linecap: round;stroke-linejoin: round;stroke-miterlimit: 10.000000;fill: none;"></path>
    <path d="M116.366898 116.196426l0 0"
          style="stroke:rgb(100.000000%,84.313965%,0.000000%); stroke-width: 3.571426;stroke-linecap: round;stroke-linejoin: round;stroke-miterlimit: 10.000000;fill: none;"></path>
    <path d="M121.616913 126.696457l0 0"
          style="stroke:rgb(100.000000%,84.313965%,0.000000%); stroke-width: 3.571426;stroke-linecap: round;stroke-linejoin: round;stroke-miterlimit: 10.000000;fill: none;"></path>
    <path d="M121.616913 121.446442l0 0"
          style="stroke:rgb(100.000000%,84.313965%,0.000000%); stroke-width: 3.571426;stroke-linecap: round;stroke-linejoin: round;stroke-miterlimit: 10.000000;fill: none;"></path>
    <path d="M121.616913 116.196426l0 0"
          style="stroke:rgb(100.000000%,84.313965%,0.000000%); stroke-width: 3.571426;stroke-linecap: round;stroke-linejoin: round;stroke-miterlimit: 10.000000;fill: none;"></path>
    <path d="M157.166672 117.928558L157.166672 121.500000L160.738113 121.500000L181.571442 121.500000L181.571442 117.928558L178.000000 117.928558Z"
          style="fill: rgb(100.000000%,84.313965%,0.000000%);stroke: none;"></path>
</svg>
