<?xml version="1.0" encoding="UTF-8" standalone="no"?>
<!DOCTYPE svg PUBLIC "-//W3C//DTD SVG 1.1//EN"
 "http://www.w3.org/Graphics/SVG/1.1/DTD/svg11.dtd">
<!-- Generated by graphviz version 2.40.1 (0)
 -->
<!-- Title: emulation_states Pages: 1 -->
<svg width="279pt" height="218pt"
 viewBox="0.00 0.00 278.52 218.00" xmlns="http://www.w3.org/2000/svg" xmlns:xlink="http://www.w3.org/1999/xlink">
<g id="graph0" class="graph" transform="scale(1 1) rotate(0) translate(4 214)">
<title>emulation_states</title>
<polygon fill="#ffffff" stroke="transparent" points="-4,4 -4,-214 274.5233,-214 274.5233,4 -4,4"/>
<!-- breakpoint -->
<g id="node1" class="node">
<title>breakpoint</title>
<polygon fill="#d3d3d3" stroke="#000000" points="165.5233,-210 71.5233,-210 71.5233,-174 165.5233,-174 165.5233,-210"/>
<text text-anchor="middle" x="118.5233" y="-188.3" font-family="Times,serif" font-size="14.00" fill="#000000">breakpoint</text>
</g>
<!-- breakpoint&#45;&gt;breakpoint -->
<g id="edge3" class="edge">
<title>breakpoint&#45;&gt;breakpoint:w</title>
<path fill="none" stroke="#000000" d="M71.4878,-199.663C61.0935,-198.943 53.5233,-196.3887 53.5233,-192 53.5233,-184.9453 58.9403,-182.6305 64.315,-185.0555"/>
<polygon fill="#000000" stroke="#000000" points="61.8933,-187.5825 71.5233,-192 66.7499,-182.5414 61.8933,-187.5825"/>
<text text-anchor="middle" x="35.5233" y="-188.3" font-family="Times,serif" font-size="14.00" fill="#000000">step </text>
</g>
<!-- running -->
<g id="node2" class="node">
<title>running</title>
<polygon fill="none" stroke="#000000" points="92.0233,-123 19.0233,-123 19.0233,-87 92.0233,-87 92.0233,-123"/>
<text text-anchor="middle" x="55.5233" y="-101.3" font-family="Times,serif" font-size="14.00" fill="#000000">running</text>
</g>
<!-- breakpoint&#45;&gt;running -->
<g id="edge1" class="edge">
<title>breakpoint&#45;&gt;running</title>
<path fill="none" stroke="#000000" d="M71.3478,-183.3108C43.4199,-177.1006 11.8973,-167.849 3.5233,-156.5 -3.5604,-146.8998 1.5483,-137.4136 10.8581,-129.2492"/>
<polygon fill="#000000" stroke="#000000" points="13.2275,-131.8447 19.0725,-123.0081 8.9926,-126.271 13.2275,-131.8447"/>
<text text-anchor="middle" x="18.5233" y="-145.3" font-family="Times,serif" font-size="14.00" fill="#000000">run </text>
</g>
<!-- stopped -->
<g id="node3" class="node">
<title>stopped</title>
<polygon fill="none" stroke="#000000" points="217.5233,-36 143.5233,-36 143.5233,0 217.5233,0 217.5233,-36"/>
<text text-anchor="middle" x="180.5233" y="-14.3" font-family="Times,serif" font-size="14.00" fill="#000000">stopped</text>
</g>
<!-- breakpoint&#45;&gt;stopped -->
<g id="edge2" class="edge">
<title>breakpoint&#45;&gt;stopped</title>
<path fill="none" stroke="#000000" d="M151.0577,-173.7918C157.1186,-168.9447 162.7298,-163.1661 166.5233,-156.5 185.8987,-122.4527 186.3507,-75.9947 184.0752,-46.4924"/>
<polygon fill="#000000" stroke="#000000" points="187.552,-46.0788 183.1435,-36.4447 180.5819,-46.7252 187.552,-46.0788"/>
<text text-anchor="middle" x="202.5233" y="-101.3" font-family="Times,serif" font-size="14.00" fill="#000000">stop </text>
</g>
<!-- running&#45;&gt;breakpoint -->
<g id="edge5" class="edge">
<title>running&#45;&gt;breakpoint</title>
<path fill="none" stroke="#000000" d="M59.2435,-123.3475C61.9836,-133.7549 66.4836,-146.6299 73.5233,-156.5 76.1957,-160.2469 79.3713,-163.7986 82.781,-167.1034"/>
<polygon fill="#000000" stroke="#000000" points="80.6997,-169.9346 90.515,-173.9237 85.3296,-164.6844 80.6997,-169.9346"/>
<text text-anchor="middle" x="120.0233" y="-145.3" font-family="Times,serif" font-size="14.00" fill="#000000">pause, reset </text>
</g>
<!-- running&#45;&gt;stopped -->
<g id="edge4" class="edge">
<title>running&#45;&gt;stopped</title>
<path fill="none" stroke="#000000" d="M62.4176,-86.542C67.2033,-75.9208 74.5254,-63.0315 84.5233,-54.5 98.4694,-42.5994 116.6992,-34.3703 133.5219,-28.7832"/>
<polygon fill="#000000" stroke="#000000" points="134.6973,-32.0834 143.2212,-25.7911 132.6338,-25.3945 134.6973,-32.0834"/>
<text text-anchor="middle" x="125.5233" y="-58.3" font-family="Times,serif" font-size="14.00" fill="#000000">stop, error </text>
</g>
<!-- stopped&#45;&gt;breakpoint -->
<g id="edge6" class="edge">
<title>stopped&#45;&gt;breakpoint</title>
<path fill="none" stroke="#000000" d="M197.5261,-36.0259C215.2316,-57.0951 238.5705,-92.9125 224.5233,-123 214.6552,-144.1362 194.7244,-159.6123 174.7813,-170.4863"/>
<polygon fill="#000000" stroke="#000000" points="172.9577,-167.4878 165.6535,-175.1624 176.1494,-173.7179 172.9577,-167.4878"/>
<text text-anchor="middle" x="249.5233" y="-101.3" font-family="Times,serif" font-size="14.00" fill="#000000">reset </text>
</g>
</g>
</svg>
