<?xml version="1.0" encoding="UTF-8" standalone="no"?>
<!DOCTYPE svg PUBLIC "-//W3C//DTD SVG 1.1//EN"
 "http://www.w3.org/Graphics/SVG/1.1/DTD/svg11.dtd">
<!-- Generated by graphviz version 2.38.0 (20140413.2041)
 -->
<!-- Title: brainduck_schema Pages: 1 -->
<svg width="261pt" height="116pt"
 viewBox="0.00 0.00 261.00 116.00" xmlns="http://www.w3.org/2000/svg" xmlns:xlink="http://www.w3.org/1999/xlink">
<g id="graph0" class="graph" transform="scale(1 1) rotate(0) translate(4 112)">
<title>brainduck_schema</title>
<polygon fill="white" stroke="none" points="-4,4 -4,-112 257,-112 257,4 -4,4"/>
<!-- brainc&#45;brainduck -->
<g id="node1" class="node"><title>brainc&#45;brainduck</title>
<polygon fill="none" stroke="black" points="113,-108 0,-108 0,-72 113,-72 113,-108"/>
<text text-anchor="middle" x="56.5" y="-86.3" font-family="Times,serif" font-size="14.00">brainc&#45;brainduck</text>
</g>
<!-- brainduck&#45;mem -->
<g id="node2" class="node"><title>brainduck&#45;mem</title>
<polygon fill="none" stroke="black" points="110,-36 3,-36 3,-0 110,-0 110,-36"/>
<text text-anchor="middle" x="56.5" y="-14.3" font-family="Times,serif" font-size="14.00">brainduck&#45;mem</text>
</g>
<!-- brainc&#45;brainduck&#45;&gt;brainduck&#45;mem -->
<g id="edge1" class="edge"><title>brainc&#45;brainduck&#45;&gt;brainduck&#45;mem</title>
<path fill="none" stroke="black" d="M56.5,-71.6966C56.5,-63.9827 56.5,-54.7125 56.5,-46.1124"/>
<polygon fill="black" stroke="black" points="60.0001,-46.1043 56.5,-36.1043 53.0001,-46.1044 60.0001,-46.1043"/>
</g>
<!-- brainduck&#45;cpu -->
<g id="node3" class="node"><title>brainduck&#45;cpu</title>
<polygon fill="none" stroke="black" points="239.5,-108 141.5,-108 141.5,-72 239.5,-72 239.5,-108"/>
<text text-anchor="middle" x="190.5" y="-86.3" font-family="Times,serif" font-size="14.00">brainduck&#45;cpu</text>
</g>
<!-- brainduck&#45;cpu&#45;&gt;brainduck&#45;mem -->
<g id="edge2" class="edge"><title>brainduck&#45;cpu&#45;&gt;brainduck&#45;mem</title>
<path fill="none" stroke="black" d="M157.72,-71.8761C139.875,-62.5541 117.603,-50.9194 98.4975,-40.939"/>
<polygon fill="black" stroke="black" points="99.8902,-37.7178 89.4061,-36.1898 96.649,-43.9222 99.8902,-37.7178"/>
</g>
<!-- brainduck&#45;terminal -->
<g id="node4" class="node"><title>brainduck&#45;terminal</title>
<polygon fill="none" stroke="black" points="253,-36 128,-36 128,-0 253,-0 253,-36"/>
<text text-anchor="middle" x="190.5" y="-14.3" font-family="Times,serif" font-size="14.00">brainduck&#45;terminal</text>
</g>
<!-- brainduck&#45;cpu&#45;&gt;brainduck&#45;terminal -->
<g id="edge3" class="edge"><title>brainduck&#45;cpu&#45;&gt;brainduck&#45;terminal</title>
<path fill="none" stroke="black" d="M184.584,-71.6966C183.789,-63.9827 183.562,-54.7125 183.905,-46.1124"/>
<polygon fill="black" stroke="black" points="187.398,-46.3243 184.605,-36.1043 180.415,-45.8356 187.398,-46.3243"/>
</g>
<!-- brainduck&#45;terminal&#45;&gt;brainduck&#45;cpu -->
<g id="edge4" class="edge"><title>brainduck&#45;terminal&#45;&gt;brainduck&#45;cpu</title>
<path fill="none" stroke="black" d="M196.395,-36.1043C197.201,-43.7913 197.437,-53.0537 197.104,-61.6651"/>
<polygon fill="black" stroke="black" points="193.609,-61.4805 196.416,-71.6966 200.592,-61.9597 193.609,-61.4805"/>
</g>
</g>
</svg>
