<?xml version="1.0" encoding="UTF-8" standalone="no"?>
<!DOCTYPE svg PUBLIC "-//W3C//DTD SVG 1.1//EN"
 "http://www.w3.org/Graphics/SVG/1.1/DTD/svg11.dtd">
<!-- Generated by graphviz version 2.38.0 (20140413.2041)
 -->
<!-- Title: brainduck_schema Pages: 1 -->
<svg width="254pt" height="116pt"
 viewBox="0.00 0.00 254.00 116.00" xmlns="http://www.w3.org/2000/svg" xmlns:xlink="http://www.w3.org/1999/xlink">
<g id="graph0" class="graph" transform="scale(1 1) rotate(0) translate(4 112)">
<title>brainduck_schema</title>
<polygon fill="white" stroke="none" points="-4,4 -4,-112 250,-112 250,4 -4,4"/>
<!-- brainc&#45;brainduck -->
<g id="node1" class="node"><title>brainc&#45;brainduck</title>
<polygon fill="none" stroke="black" points="109,-108 0,-108 0,-72 109,-72 109,-108"/>
<text text-anchor="middle" x="54.5" y="-86.3" font-family="Times,serif" font-size="14.00">brainc&#45;brainduck</text>
</g>
<!-- brainduck&#45;mem -->
<g id="node2" class="node"><title>brainduck&#45;mem</title>
<polygon fill="none" stroke="black" points="106.5,-36 2.5,-36 2.5,-0 106.5,-0 106.5,-36"/>
<text text-anchor="middle" x="54.5" y="-14.3" font-family="Times,serif" font-size="14.00">brainduck&#45;mem</text>
</g>
<!-- brainc&#45;brainduck&#45;&gt;brainduck&#45;mem -->
<g id="edge1" class="edge"><title>brainc&#45;brainduck&#45;&gt;brainduck&#45;mem</title>
<path fill="none" stroke="black" d="M54.5,-71.6966C54.5,-63.9827 54.5,-54.7125 54.5,-46.1124"/>
<polygon fill="black" stroke="black" points="58.0001,-46.1043 54.5,-36.1043 51.0001,-46.1044 58.0001,-46.1043"/>
</g>
<!-- brainduck&#45;cpu -->
<g id="node3" class="node"><title>brainduck&#45;cpu</title>
<polygon fill="none" stroke="black" points="233,-108 138,-108 138,-72 233,-72 233,-108"/>
<text text-anchor="middle" x="185.5" y="-86.3" font-family="Times,serif" font-size="14.00">brainduck&#45;cpu</text>
</g>
<!-- brainduck&#45;cpu&#45;&gt;brainduck&#45;mem -->
<g id="edge2" class="edge"><title>brainduck&#45;cpu&#45;&gt;brainduck&#45;mem</title>
<path fill="none" stroke="black" d="M153.454,-71.8761C136.008,-62.5541 114.235,-50.9194 95.5572,-40.939"/>
<polygon fill="black" stroke="black" points="97.1387,-37.8157 86.6694,-36.1898 93.8397,-43.9896 97.1387,-37.8157"/>
</g>
<!-- brainduck&#45;terminal -->
<g id="node4" class="node"><title>brainduck&#45;terminal</title>
<polygon fill="none" stroke="black" points="246,-36 125,-36 125,-0 246,-0 246,-36"/>
<text text-anchor="middle" x="185.5" y="-14.3" font-family="Times,serif" font-size="14.00">brainduck&#45;terminal</text>
</g>
<!-- brainduck&#45;cpu&#45;&gt;brainduck&#45;terminal -->
<g id="edge3" class="edge"><title>brainduck&#45;cpu&#45;&gt;brainduck&#45;terminal</title>
<path fill="none" stroke="black" d="M179.584,-71.6966C178.789,-63.9827 178.562,-54.7125 178.905,-46.1124"/>
<polygon fill="black" stroke="black" points="182.398,-46.3243 179.605,-36.1043 175.415,-45.8356 182.398,-46.3243"/>
</g>
<!-- brainduck&#45;terminal&#45;&gt;brainduck&#45;cpu -->
<g id="edge4" class="edge"><title>brainduck&#45;terminal&#45;&gt;brainduck&#45;cpu</title>
<path fill="none" stroke="black" d="M191.395,-36.1043C192.201,-43.7913 192.437,-53.0537 192.104,-61.6651"/>
<polygon fill="black" stroke="black" points="188.609,-61.4805 191.416,-71.6966 195.592,-61.9597 188.609,-61.4805"/>
</g>
</g>
</svg>
