<?xml version="1.0" encoding="UTF-8" standalone="no"?>
<!DOCTYPE svg PUBLIC "-//W3C//DTD SVG 1.1//EN"
        "http://www.w3.org/Graphics/SVG/1.1/DTD/svg11.dtd">
<!-- Generated by graphviz version 2.40.1 (20161225.0304)
 -->
<!-- Title: brainduck_schema Pages: 1 -->
<svg width="254pt" height="116pt"
     viewBox="0.00 0.00 254.00 116.00" xmlns="http://www.w3.org/2000/svg">
    <g id="graph0" class="graph" transform="scale(1 1) rotate(0) translate(4 112)">
        <title>brainduck_schema</title>
        <polygon fill="#ffffff" stroke="transparent" points="-4,4 -4,-112 250,-112 250,4 -4,4"/>
        <!-- brainc&#45;brainduck -->
        <g id="node1" class="node">
            <title>brainc&#45;brainduck</title>
            <polygon fill="none" stroke="#000000" points="109,-108 0,-108 0,-72 109,-72 109,-108"/>
            <text text-anchor="middle" x="54.5" y="-86.3" font-family="Times,serif" font-size="14.00" fill="#000000">
                brainc&#45;brainduck
            </text>
        </g>
        <!-- brainduck&#45;mem -->
        <g id="node2" class="node">
            <title>brainduck&#45;mem</title>
            <polygon fill="none" stroke="#000000" points="106.5,-36 2.5,-36 2.5,0 106.5,0 106.5,-36"/>
            <text text-anchor="middle" x="54.5" y="-14.3" font-family="Times,serif" font-size="14.00" fill="#000000">
                brainduck&#45;mem
            </text>
        </g>
        <!-- brainc&#45;brainduck&#45;&gt;brainduck&#45;mem -->
        <g id="edge1" class="edge">
            <title>brainc&#45;brainduck&#45;&gt;brainduck&#45;mem</title>
            <path fill="none" stroke="#000000" d="M54.5,-71.8314C54.5,-64.131 54.5,-54.9743 54.5,-46.4166"/>
            <polygon fill="#000000" stroke="#000000"
                     points="58.0001,-46.4132 54.5,-36.4133 51.0001,-46.4133 58.0001,-46.4132"/>
        </g>
        <!-- brainduck&#45;cpu -->
        <g id="node3" class="node">
            <title>brainduck&#45;cpu</title>
            <polygon fill="none" stroke="#000000" points="233,-108 138,-108 138,-72 233,-72 233,-108"/>
            <text text-anchor="middle" x="185.5" y="-86.3" font-family="Times,serif" font-size="14.00" fill="#000000">
                brainduck&#45;cpu
            </text>
        </g>
        <!-- brainduck&#45;cpu&#45;&gt;brainduck&#45;mem -->
        <g id="edge2" class="edge">
            <title>brainduck&#45;cpu&#45;&gt;brainduck&#45;mem</title>
            <path fill="none" stroke="#000000"
                  d="M152.4432,-71.8314C135.5323,-62.5368 114.7615,-51.1208 96.7059,-41.1971"/>
            <polygon fill="#000000" stroke="#000000"
                     points="97.9957,-37.9122 87.5463,-36.1628 94.624,-44.0468 97.9957,-37.9122"/>
        </g>
        <!-- brainduck&#45;terminal -->
        <g id="node4" class="node">
            <title>brainduck&#45;terminal</title>
            <polygon fill="none" stroke="#000000" points="246,-36 125,-36 125,0 246,0 246,-36"/>
            <text text-anchor="middle" x="185.5" y="-14.3" font-family="Times,serif" font-size="14.00" fill="#000000">
                brainduck&#45;terminal
            </text>
        </g>
        <!-- brainduck&#45;cpu&#45;&gt;brainduck&#45;terminal -->
        <g id="edge3" class="edge">
            <title>brainduck&#45;cpu&#45;&gt;brainduck&#45;terminal</title>
            <path fill="none" stroke="#000000"
                  d="M179.5476,-71.8314C178.7972,-64.131 178.5763,-54.9743 178.8849,-46.4166"/>
            <polygon fill="#000000" stroke="#000000"
                     points="182.3792,-46.6161 179.524,-36.4133 175.3935,-46.1697 182.3792,-46.6161"/>
        </g>
        <!-- brainduck&#45;terminal&#45;&gt;brainduck&#45;cpu -->
        <g id="edge4" class="edge">
            <title>brainduck&#45;terminal&#45;&gt;brainduck&#45;cpu</title>
            <path fill="none" stroke="#000000"
                  d="M191.476,-36.4133C192.2071,-44.0593 192.4203,-53.1084 192.1155,-61.5726"/>
            <polygon fill="#000000" stroke="#000000"
                     points="188.6048,-61.6264 191.4524,-71.8314 195.5902,-62.078 188.6048,-61.6264"/>
        </g>
    </g>
</svg>
