<?xml version="1.0" encoding="UTF-8" standalone="no"?>
<!DOCTYPE svg PUBLIC "-//W3C//DTD SVG 1.1//EN"
        "http://www.w3.org/Graphics/SVG/1.1/DTD/svg11.dtd">
<!-- Generated by graphviz version 2.40.1 (20161225.0304)
 -->
<!-- Title: emulation_states Pages: 1 -->
<svg width="239pt" height="226pt"
     viewBox="0.00 0.00 239.00 226.00" xmlns="http://www.w3.org/2000/svg">
    <g id="graph0" class="graph" transform="scale(1 1) rotate(0) translate(4 222)">
        <title>emulation_states</title>
        <polygon fill="#ffffff" stroke="transparent" points="-4,4 -4,-222 235,-222 235,4 -4,4"/>
        <!-- ready -->
        <g id="node1" class="node">
            <title>ready</title>
            <polygon fill="#d3d3d3" stroke="#000000" points="98,-218 44,-218 44,-182 98,-182 98,-218"/>
            <text text-anchor="middle" x="71" y="-196.3" font-family="Times,serif" font-size="14.00" fill="#000000">
                ready
            </text>
        </g>
        <!-- ready&#45;&gt;ready -->
        <g id="edge3" class="edge">
            <title>ready&#45;&gt;ready:w</title>
            <path fill="none" stroke="#000000"
                  d="M43.7592,-207.8673C33.9761,-208.0365 26,-205.4141 26,-200 26,-192.9453 31.417,-190.6305 36.7917,-193.0555"/>
            <polygon fill="#000000" stroke="#000000"
                     points="34.37,-195.5825 44,-200 39.2266,-190.5414 34.37,-195.5825"/>
            <text text-anchor="middle" x="13" y="-196.3" font-family="Times,serif" font-size="14.00" fill="#000000">
                step
            </text>
        </g>
        <!-- stopped -->
        <g id="node2" class="node">
            <title>stopped</title>
            <polygon fill="none" stroke="#000000"
                     points="161.5116,-14.5442 161.5116,-29.4558 137.1947,-40 102.8053,-40 78.4884,-29.4558 78.4884,-14.5442 102.8053,-4 137.1947,-4 161.5116,-14.5442"/>
            <polygon fill="none" stroke="#000000"
                     points="165.5121,-11.9189 165.5121,-32.0811 138.0248,-44 101.9752,-44 74.4879,-32.0811 74.4879,-11.9189 101.9752,0 138.0248,0 165.5121,-11.9189"/>
            <text text-anchor="middle" x="120" y="-18.3" font-family="Times,serif" font-size="14.00" fill="#000000">
                stopped
            </text>
        </g>
        <!-- ready&#45;&gt;stopped -->
        <g id="edge2" class="edge">
            <title>ready&#45;&gt;stopped</title>
            <path fill="none" stroke="#000000"
                  d="M62.8708,-181.9528C54.4372,-160.5548 43.9129,-124.1239 55,-95 61.7628,-77.2352 75.0522,-61.0402 87.8618,-48.4425"/>
            <polygon fill="#000000" stroke="#000000"
                     points="90.4055,-50.855 95.2956,-41.4562 85.6116,-45.7541 90.4055,-50.855"/>
            <text text-anchor="middle" x="68.5" y="-109.3" font-family="Times,serif" font-size="14.00" fill="#000000">
                stop
            </text>
        </g>
        <!-- running -->
        <g id="node3" class="node">
            <title>running</title>
            <polygon fill="none" stroke="#000000" points="149.5,-131 90.5,-131 90.5,-95 149.5,-95 149.5,-131"/>
            <text text-anchor="middle" x="120" y="-109.3" font-family="Times,serif" font-size="14.00" fill="#000000">
                running
            </text>
        </g>
        <!-- ready&#45;&gt;running -->
        <g id="edge1" class="edge">
            <title>ready&#45;&gt;running</title>
            <path fill="none" stroke="#000000"
                  d="M71.4152,-181.7607C72.3187,-171.7142 74.5836,-159.3271 80,-149.5 82.0931,-145.7024 84.7305,-142.0883 87.6481,-138.715"/>
            <polygon fill="#000000" stroke="#000000"
                     points="90.3853,-140.9203 94.8401,-131.3076 85.363,-136.0441 90.3853,-140.9203"/>
            <text text-anchor="middle" x="91" y="-153.3" font-family="Times,serif" font-size="14.00" fill="#000000">
                run
            </text>
        </g>
        <!-- stopped&#45;&gt;ready -->
        <g id="edge6" class="edge">
            <title>stopped&#45;&gt;ready</title>
            <path fill="none" stroke="#000000"
                  d="M156.4892,-36.2201C167.6678,-42.5026 178.6755,-51.1077 185,-62.5 207.0205,-102.1657 208.5386,-128.4459 181,-164.5 171.9686,-176.3241 136.4913,-186.3614 108.2362,-192.7145"/>
            <polygon fill="#000000" stroke="#000000"
                     points="107.248,-189.3473 98.2155,-194.8849 108.7299,-196.1886 107.248,-189.3473"/>
            <text text-anchor="middle" x="216" y="-109.3" font-family="Times,serif" font-size="14.00" fill="#000000">
                reset
            </text>
        </g>
        <!-- running&#45;&gt;ready -->
        <g id="edge5" class="edge">
            <title>running&#45;&gt;ready</title>
            <path fill="none" stroke="#000000"
                  d="M115.4327,-131.374C112.4567,-141.5485 108.0025,-154.1855 102,-164.5 100.1197,-167.731 97.9232,-170.9395 95.5833,-174.0305"/>
            <polygon fill="#000000" stroke="#000000"
                     points="92.7916,-171.9155 89.1728,-181.8732 98.2114,-176.3456 92.7916,-171.9155"/>
            <text text-anchor="middle" x="143" y="-153.3" font-family="Times,serif" font-size="14.00" fill="#000000">
                pause, reset
            </text>
        </g>
        <!-- running&#45;&gt;stopped -->
        <g id="edge4" class="edge">
            <title>running&#45;&gt;stopped</title>
            <path fill="none" stroke="#000000" d="M120,-94.5848C120,-83.1105 120,-68.0231 120,-54.5774"/>
            <polygon fill="#000000" stroke="#000000"
                     points="123.5001,-54.2465 120,-44.2465 116.5001,-54.2466 123.5001,-54.2465"/>
            <text text-anchor="middle" x="150.5" y="-66.3" font-family="Times,serif" font-size="14.00" fill="#000000">
                stop, error
            </text>
        </g>
    </g>
</svg>
