<?xml version="1.0" encoding="UTF-8" standalone="no"?>
<!DOCTYPE svg PUBLIC "-//W3C//DTD SVG 1.1//EN"
 "http://www.w3.org/Graphics/SVG/1.1/DTD/svg11.dtd">
<!-- Generated by graphviz version 2.38.0 (20140413.2041)
 -->
<!-- Title: emulation_states Pages: 1 -->
<svg width="242pt" height="226pt"
 viewBox="0.00 0.00 242.00 226.00" xmlns="http://www.w3.org/2000/svg" xmlns:xlink="http://www.w3.org/1999/xlink">
<g id="graph0" class="graph" transform="scale(1 1) rotate(0) translate(4 222)">
<title>emulation_states</title>
<polygon fill="white" stroke="none" points="-4,4 -4,-222 238,-222 238,4 -4,4"/>
<!-- ready -->
<g id="node1" class="node"><title>ready</title>
<polygon fill="lightgrey" stroke="black" points="98,-218 44,-218 44,-182 98,-182 98,-218"/>
<text text-anchor="middle" x="71" y="-196.3" font-family="Times,serif" font-size="14.00">ready</text>
</g>
<!-- ready&#45;&gt;ready -->
<g id="edge3" class="edge"><title>ready&#45;&gt;ready:w</title>
<path fill="none" stroke="black" d="M43.7592,-207.867C33.9761,-208.036 26,-205.414 26,-200 26,-192.945 31.417,-190.63 36.7917,-193.056"/>
<polygon fill="black" stroke="black" points="34.37,-195.583 44,-200 39.2266,-190.541 34.37,-195.583"/>
<text text-anchor="middle" x="13" y="-196.3" font-family="Times,serif" font-size="14.00">step </text>
</g>
<!-- stopped -->
<g id="node2" class="node"><title>stopped</title>
<polygon fill="none" stroke="black" points="162.512,-14.5442 162.512,-29.4558 138.195,-40 103.805,-40 79.4884,-29.4558 79.4884,-14.5442 103.805,-4 138.195,-4 162.512,-14.5442"/>
<polygon fill="none" stroke="black" points="166.512,-11.9189 166.512,-32.0811 139.025,-44 102.975,-44 75.4879,-32.0811 75.4879,-11.9189 102.975,-3.55271e-15 139.025,-0 166.512,-11.9189"/>
<text text-anchor="middle" x="121" y="-18.3" font-family="Times,serif" font-size="14.00">stopped</text>
</g>
<!-- ready&#45;&gt;stopped -->
<g id="edge2" class="edge"><title>ready&#45;&gt;stopped</title>
<path fill="none" stroke="black" d="M63.1342,-181.846C54.6187,-160.736 43.6754,-124.113 55,-95 61.9888,-77.0333 75.7866,-60.8247 88.9674,-48.356"/>
<polygon fill="black" stroke="black" points="91.5255,-50.7619 96.6007,-41.4617 86.8336,-45.567 91.5255,-50.7619"/>
<text text-anchor="middle" x="68.5" y="-109.3" font-family="Times,serif" font-size="14.00">stop </text>
</g>
<!-- running -->
<g id="node3" class="node"><title>running</title>
<polygon fill="none" stroke="black" points="150.5,-131 91.5,-131 91.5,-95 150.5,-95 150.5,-131"/>
<text text-anchor="middle" x="121" y="-109.3" font-family="Times,serif" font-size="14.00">running</text>
</g>
<!-- ready&#45;&gt;running -->
<g id="edge1" class="edge"><title>ready&#45;&gt;running</title>
<path fill="none" stroke="black" d="M71.8023,-181.545C72.9031,-171.602 75.4031,-159.227 81,-149.5 83.3023,-145.499 86.2191,-141.713 89.4249,-138.209"/>
<polygon fill="black" stroke="black" points="92.0766,-140.511 96.778,-131.017 87.1818,-135.507 92.0766,-140.511"/>
<text text-anchor="middle" x="92" y="-153.3" font-family="Times,serif" font-size="14.00">run </text>
</g>
<!-- stopped&#45;&gt;ready -->
<g id="edge6" class="edge"><title>stopped&#45;&gt;ready</title>
<path fill="none" stroke="black" d="M156.782,-36.3056C168.192,-42.4458 179.526,-50.9907 186,-62.5 208.234,-102.029 210.563,-128.484 183,-164.5 165.611,-187.221 133.531,-195.391 108.146,-198.139"/>
<polygon fill="black" stroke="black" points="107.76,-194.659 98.0909,-198.99 108.351,-201.634 107.76,-194.659"/>
<text text-anchor="middle" x="219" y="-109.3" font-family="Times,serif" font-size="14.00">reset </text>
</g>
<!-- running&#45;&gt;ready -->
<g id="edge5" class="edge"><title>running&#45;&gt;ready</title>
<path fill="none" stroke="black" d="M116.77,-131.139C113.818,-141.293 109.274,-154.154 103,-164.5 101.02,-167.766 98.6955,-170.989 96.2191,-174.077"/>
<polygon fill="black" stroke="black" points="93.3628,-172.028 89.4398,-181.869 98.644,-176.622 93.3628,-172.028"/>
<text text-anchor="middle" x="145" y="-153.3" font-family="Times,serif" font-size="14.00">pause, reset </text>
</g>
<!-- running&#45;&gt;stopped -->
<g id="edge4" class="edge"><title>running&#45;&gt;stopped</title>
<path fill="none" stroke="black" d="M121,-94.8399C121,-83.4407 121,-68.1336 121,-54.5781"/>
<polygon fill="black" stroke="black" points="124.5,-54.1905 121,-44.1905 117.5,-54.1906 124.5,-54.1905"/>
<text text-anchor="middle" x="151.5" y="-66.3" font-family="Times,serif" font-size="14.00">stop, error </text>
</g>
</g>
</svg>
