<?xml version="1.0" encoding="UTF-8" standalone="no"?>
<!DOCTYPE svg PUBLIC "-//W3C//DTD SVG 1.1//EN"
 "http://www.w3.org/Graphics/SVG/1.1/DTD/svg11.dtd">
<!-- Generated by graphviz version 2.38.0 (20140413.2041)
 -->
<!-- Title: emulation_states Pages: 1 -->
<svg width="246pt" height="226pt"
 viewBox="0.00 0.00 246.00 226.00" xmlns="http://www.w3.org/2000/svg" xmlns:xlink="http://www.w3.org/1999/xlink">
<g id="graph0" class="graph" transform="scale(1 1) rotate(0) translate(4 222)">
<title>emulation_states</title>
<polygon fill="white" stroke="none" points="-4,4 -4,-222 242,-222 242,4 -4,4"/>
<!-- ready -->
<g id="node1" class="node"><title>ready</title>
<polygon fill="lightgrey" stroke="black" points="99,-218 45,-218 45,-182 99,-182 99,-218"/>
<text text-anchor="middle" x="72" y="-196.3" font-family="Times,serif" font-size="14.00">ready</text>
</g>
<!-- ready&#45;&gt;ready -->
<g id="edge3" class="edge"><title>ready&#45;&gt;ready:w</title>
<path fill="none" stroke="black" d="M44.7592,-207.867C34.9761,-208.036 27,-205.414 27,-200 27,-192.945 32.417,-190.63 37.7917,-193.056"/>
<polygon fill="black" stroke="black" points="35.37,-195.583 45,-200 40.2266,-190.541 35.37,-195.583"/>
<text text-anchor="middle" x="13.5" y="-196.3" font-family="Times,serif" font-size="14.00">step </text>
</g>
<!-- stopped -->
<g id="node2" class="node"><title>stopped</title>
<polygon fill="none" stroke="black" points="165.834,-14.5442 165.834,-29.4558 140.742,-40 105.258,-40 80.1664,-29.4558 80.1664,-14.5442 105.258,-4 140.742,-4 165.834,-14.5442"/>
<polygon fill="none" stroke="black" points="169.826,-11.8843 169.826,-32.1157 141.546,-44 104.454,-44 76.1738,-32.1157 76.1738,-11.8843 104.454,-3.55271e-15 141.546,-0 169.826,-11.8843"/>
<text text-anchor="middle" x="123" y="-18.3" font-family="Times,serif" font-size="14.00">stopped</text>
</g>
<!-- ready&#45;&gt;stopped -->
<g id="edge2" class="edge"><title>ready&#45;&gt;stopped</title>
<path fill="none" stroke="black" d="M64.0981,-181.832C55.5463,-160.708 44.5664,-124.071 56,-95 63.0528,-77.0678 76.9075,-60.954 90.1965,-48.5401"/>
<polygon fill="black" stroke="black" points="92.7644,-50.9397 97.8999,-41.6727 88.1063,-45.7146 92.7644,-50.9397"/>
<text text-anchor="middle" x="70" y="-109.3" font-family="Times,serif" font-size="14.00">stop </text>
</g>
<!-- running -->
<g id="node3" class="node"><title>running</title>
<polygon fill="none" stroke="black" points="152.5,-131 93.5,-131 93.5,-95 152.5,-95 152.5,-131"/>
<text text-anchor="middle" x="123" y="-109.3" font-family="Times,serif" font-size="14.00">running</text>
</g>
<!-- ready&#45;&gt;running -->
<g id="edge1" class="edge"><title>ready&#45;&gt;running</title>
<path fill="none" stroke="black" d="M72.2623,-181.973C73.082,-171.94 75.314,-159.329 81,-149.5 83.3217,-145.487 86.2739,-141.719 89.5339,-138.247"/>
<polygon fill="black" stroke="black" points="92.1832,-140.558 97.0369,-131.141 87.3697,-135.476 92.1832,-140.558"/>
<text text-anchor="middle" x="92" y="-153.3" font-family="Times,serif" font-size="14.00">run </text>
</g>
<!-- stopped&#45;&gt;ready -->
<g id="edge6" class="edge"><title>stopped&#45;&gt;ready</title>
<path fill="none" stroke="black" d="M160.208,-36.2501C171.846,-42.3557 183.369,-50.8927 190,-62.5 212.515,-101.91 213.041,-128.81 185,-164.5 167.18,-187.182 134.84,-195.355 109.309,-198.115"/>
<polygon fill="black" stroke="black" points="108.869,-194.64 99.2001,-198.971 109.46,-201.615 108.869,-194.64"/>
<text text-anchor="middle" x="222.5" y="-109.3" font-family="Times,serif" font-size="14.00">reset </text>
</g>
<!-- running&#45;&gt;ready -->
<g id="edge5" class="edge"><title>running&#45;&gt;ready</title>
<path fill="none" stroke="black" d="M117.926,-131.084C114.512,-141.219 109.455,-154.078 103,-164.5 101.018,-167.7 98.7257,-170.882 96.3031,-173.946"/>
<polygon fill="black" stroke="black" points="93.5143,-171.823 89.7084,-181.71 98.8496,-176.354 93.5143,-171.823"/>
<text text-anchor="middle" x="146" y="-153.3" font-family="Times,serif" font-size="14.00">pause, reset </text>
</g>
<!-- running&#45;&gt;stopped -->
<g id="edge4" class="edge"><title>running&#45;&gt;stopped</title>
<path fill="none" stroke="black" d="M123,-94.8399C123,-83.4407 123,-68.1336 123,-54.5781"/>
<polygon fill="black" stroke="black" points="126.5,-54.1905 123,-44.1905 119.5,-54.1906 126.5,-54.1905"/>
<text text-anchor="middle" x="154.5" y="-66.3" font-family="Times,serif" font-size="14.00">stop, error </text>
</g>
</g>
</svg>
