<?xml version="1.0" encoding="UTF-8" standalone="no"?>
<!DOCTYPE svg PUBLIC "-//W3C//DTD SVG 1.1//EN"
 "http://www.w3.org/Graphics/SVG/1.1/DTD/svg11.dtd">
<!-- Generated by graphviz version 2.38.0 (20140413.2041)
 -->
<!-- Title: virtual_computer Pages: 1 -->
<svg width="375pt" height="161pt"
 viewBox="0.00 0.00 375.00 160.50" xmlns="http://www.w3.org/2000/svg" xmlns:xlink="http://www.w3.org/1999/xlink">
<g id="graph0" class="graph" transform="scale(1 1) rotate(0) translate(4 156.5)">
<title>virtual_computer</title>
<polygon fill="white" stroke="none" points="-4,4 -4,-156.5 371,-156.5 371,4 -4,4"/>
<!-- Compiler -->
<g id="node1" class="node"><title>Compiler</title>
<polygon fill="none" stroke="black" points="71,-152.5 0,-152.5 0,-116.5 71,-116.5 71,-152.5"/>
<text text-anchor="middle" x="35.5" y="-130.8" font-family="Times,serif" font-size="14.00">Compiler</text>
</g>
<!-- Device -->
<g id="node2" class="node"><title>Device</title>
<polygon fill="none" stroke="black" points="270,-43.5 213,-43.5 213,-7.5 270,-7.5 270,-43.5"/>
<text text-anchor="middle" x="241.5" y="-21.8" font-family="Times,serif" font-size="14.00">Device</text>
</g>
<!-- Compiler&#45;&#45;Device -->
<g id="edge1" class="edge"><title>Compiler&#45;&#45;Device</title>
<path fill="none" stroke="black" d="M68.5975,-116.309C108.518,-95.5733 174.963,-61.0603 212.804,-41.4051"/>
<text text-anchor="middle" x="197.567" y="-57.5252" font-family="Times,serif" font-size="14.00">0..N</text>
<text text-anchor="middle" x="83.8344" y="-92.7885" font-family="Times,serif" font-size="14.00">0..1</text>
</g>
<!-- CPU -->
<g id="node3" class="node"><title>CPU</title>
<polygon fill="none" stroke="black" points="69.5,-43.5 15.5,-43.5 15.5,-7.5 69.5,-7.5 69.5,-43.5"/>
<text text-anchor="middle" x="42.5" y="-21.8" font-family="Times,serif" font-size="14.00">CPU</text>
</g>
<!-- Compiler&#45;&#45;CPU -->
<g id="edge2" class="edge"><title>Compiler&#45;&#45;CPU</title>
<path fill="none" stroke="black" d="M36.6247,-116.309C37.9309,-96.3412 40.073,-63.5979 41.3781,-43.6487"/>
<text text-anchor="middle" x="30.8781" y="-47.4487" font-family="Times,serif" font-size="14.00">0..1</text>
<text text-anchor="middle" x="26.1247" y="-105.109" font-family="Times,serif" font-size="14.00">0..1</text>
</g>
<!-- Memory -->
<g id="node4" class="node"><title>Memory</title>
<polygon fill="none" stroke="black" points="282,-152.5 215,-152.5 215,-116.5 282,-116.5 282,-152.5"/>
<text text-anchor="middle" x="248.5" y="-130.8" font-family="Times,serif" font-size="14.00">Memory</text>
</g>
<!-- Compiler&#45;&#45;Memory -->
<g id="edge3" class="edge"><title>Compiler&#45;&#45;Memory</title>
<path fill="none" stroke="black" d="M71.2773,-134.5C119.16,-134.5 167.042,-134.5 214.925,-134.5"/>
<text text-anchor="middle" x="204.425" y="-138.3" font-family="Times,serif" font-size="14.00">0..1</text>
<text text-anchor="middle" x="81.7773" y="-138.3" font-family="Times,serif" font-size="14.00">0..1</text>
</g>
<!-- Device&#45;&#45;Device -->
<g id="edge7" class="edge"><title>Device&#45;&#45;Device</title>
<path fill="none" stroke="black" d="M270.05,-32.8921C303.325,-38.2209 342,-35.7568 342,-25.5 342,-15.2432 303.325,-12.7791 270.05,-18.1079"/>
<text text-anchor="middle" x="354.5" y="-21.8" font-family="Times,serif" font-size="14.00">0..N</text>
</g>
<!-- CPU&#45;&#45;Device -->
<g id="edge5" class="edge"><title>CPU&#45;&#45;Device</title>
<path fill="none" stroke="black" d="M69.707,-25.5C117.465,-25.5 165.222,-25.5 212.98,-25.5"/>
<text text-anchor="middle" x="200.48" y="-29.3" font-family="Times,serif" font-size="14.00">0..N</text>
<text text-anchor="middle" x="80.207" y="-14.3" font-family="Times,serif" font-size="14.00">0..1</text>
</g>
<!-- CPU&#45;&#45;Memory -->
<g id="edge4" class="edge"><title>CPU&#45;&#45;Memory</title>
<path fill="none" stroke="black" d="M69.5963,-40.5743C107.138,-60.0742 174.913,-95.2779 215.403,-116.309"/>
<text text-anchor="middle" x="190.425" y="-111.541" font-family="Times,serif" font-size="14.00">0..1</text>
<text text-anchor="middle" x="94.5735" y="-37.9422" font-family="Times,serif" font-size="14.00">0..1</text>
</g>
<!-- Memory&#45;&#45;Device -->
<g id="edge6" class="edge"><title>Memory&#45;&#45;Device</title>
<path fill="none" stroke="black" d="M247.375,-116.309C246.069,-96.3412 243.927,-63.5979 242.622,-43.6487"/>
<text text-anchor="middle" x="230.122" y="-47.4487" font-family="Times,serif" font-size="14.00">0..N</text>
<text text-anchor="middle" x="236.875" y="-105.109" font-family="Times,serif" font-size="14.00">0..1</text>
</g>
</g>
</svg>
