<?xml version="1.0" encoding="UTF-8" standalone="no"?>
<!DOCTYPE svg PUBLIC "-//W3C//DTD SVG 1.1//EN"
 "http://www.w3.org/Graphics/SVG/1.1/DTD/svg11.dtd">
<!-- Generated by graphviz version 2.40.1 (20161225.0304)
 -->
<!-- Title: virtual_computer Pages: 1 -->
<svg width="371pt" height="161pt"
 viewBox="0.00 0.00 370.50 160.50" xmlns="http://www.w3.org/2000/svg" xmlns:xlink="http://www.w3.org/1999/xlink">
<g id="graph0" class="graph" transform="scale(1 1) rotate(0) translate(4 156.5)">
<title>virtual_computer</title>
<polygon fill="#ffffff" stroke="transparent" points="-4,4 -4,-156.5 366.5,-156.5 366.5,4 -4,4"/>
<!-- Compiler -->
<g id="node1" class="node">
<title>Compiler</title>
<polygon fill="none" stroke="#000000" points="68,-152.5 0,-152.5 0,-116.5 68,-116.5 68,-152.5"/>
<text text-anchor="middle" x="34" y="-130.8" font-family="Times,serif" font-size="14.00" fill="#000000">Compiler</text>
</g>
<!-- Device -->
<g id="node2" class="node">
<title>Device</title>
<polygon fill="none" stroke="#000000" points="265.5,-43.5 210.5,-43.5 210.5,-7.5 265.5,-7.5 265.5,-43.5"/>
<text text-anchor="middle" x="238" y="-21.8" font-family="Times,serif" font-size="14.00" fill="#000000">Device</text>
</g>
<!-- Compiler&#45;&#45;Device -->
<g id="edge1" class="edge">
<title>Compiler&#45;&#45;Device</title>
<path fill="none" stroke="#000000" d="M68.145,-116.2559C108.0708,-94.923 173.3816,-60.0265 210.3019,-40.2995"/>
<text text-anchor="middle" x="195.2971" y="-56.5958" font-family="Times,serif" font-size="14.00" fill="#000000">0..N</text>
<text text-anchor="middle" x="83.1499" y="-92.5595" font-family="Times,serif" font-size="14.00" fill="#000000">0..1</text>
</g>
<!-- CPU -->
<g id="node3" class="node">
<title>CPU</title>
<polygon fill="none" stroke="#000000" points="67,-43.5 13,-43.5 13,-7.5 67,-7.5 67,-43.5"/>
<text text-anchor="middle" x="40" y="-21.8" font-family="Times,serif" font-size="14.00" fill="#000000">CPU</text>
</g>
<!-- Compiler&#45;&#45;CPU -->
<g id="edge2" class="edge">
<title>Compiler&#45;&#45;CPU</title>
<path fill="none" stroke="#000000" d="M35.0178,-116.0096C36.1278,-95.8444 37.8932,-63.7743 38.9972,-43.7173"/>
<text text-anchor="middle" x="27.9972" y="-47.5173" font-family="Times,serif" font-size="14.00" fill="#000000">0..1</text>
<text text-anchor="middle" x="24.0178" y="-104.8096" font-family="Times,serif" font-size="14.00" fill="#000000">0..1</text>
</g>
<!-- Memory -->
<g id="node4" class="node">
<title>Memory</title>
<polygon fill="none" stroke="#000000" points="276.5,-152.5 211.5,-152.5 211.5,-116.5 276.5,-116.5 276.5,-152.5"/>
<text text-anchor="middle" x="244" y="-130.8" font-family="Times,serif" font-size="14.00" fill="#000000">Memory</text>
</g>
<!-- Compiler&#45;&#45;Memory -->
<g id="edge3" class="edge">
<title>Compiler&#45;&#45;Memory</title>
<path fill="none" stroke="#000000" d="M68.043,-134.5C115.8126,-134.5 163.5821,-134.5 211.3517,-134.5"/>
<text text-anchor="middle" x="200.3517" y="-138.3" font-family="Times,serif" font-size="14.00" fill="#000000">0..1</text>
<text text-anchor="middle" x="79.043" y="-138.3" font-family="Times,serif" font-size="14.00" fill="#000000">0..1</text>
</g>
<!-- Device&#45;&#45;Device -->
<g id="edge7" class="edge">
<title>Device&#45;&#45;Device</title>
<path fill="none" stroke="#000000" d="M265.505,-32.7675C298.6166,-38.2584 337.5,-35.8359 337.5,-25.5 337.5,-15.1641 298.6166,-12.7416 265.505,-18.2325"/>
<text text-anchor="middle" x="350" y="-21.8" font-family="Times,serif" font-size="14.00" fill="#000000">0..N</text>
</g>
<!-- CPU&#45;&#45;Device -->
<g id="edge5" class="edge">
<title>CPU&#45;&#45;Device</title>
<path fill="none" stroke="#000000" d="M67.0703,-25.5C114.8104,-25.5 162.5506,-25.5 210.2907,-25.5"/>
<text text-anchor="middle" x="197.7907" y="-29.3" font-family="Times,serif" font-size="14.00" fill="#000000">0..N</text>
<text text-anchor="middle" x="78.0703" y="-14.3" font-family="Times,serif" font-size="14.00" fill="#000000">0..1</text>
</g>
<!-- CPU&#45;&#45;Memory -->
<g id="edge4" class="edge">
<title>CPU&#45;&#45;Memory</title>
<path fill="none" stroke="#000000" d="M67.1473,-40.0052C104.3875,-59.9031 171.2406,-95.6236 211.2239,-116.9873"/>
<text text-anchor="middle" x="186.2608" y="-111.9282" font-family="Times,serif" font-size="14.00" fill="#000000">0..1</text>
<text text-anchor="middle" x="92.1103" y="-37.6642" font-family="Times,serif" font-size="14.00" fill="#000000">0..1</text>
</g>
<!-- Memory&#45;&#45;Device -->
<g id="edge6" class="edge">
<title>Memory&#45;&#45;Device</title>
<path fill="none" stroke="#000000" d="M242.9822,-116.0096C241.8722,-95.8444 240.1068,-63.7743 239.0028,-43.7173"/>
<text text-anchor="middle" x="226.5028" y="-47.5173" font-family="Times,serif" font-size="14.00" fill="#000000">0..N</text>
<text text-anchor="middle" x="231.9822" y="-104.8096" font-family="Times,serif" font-size="14.00" fill="#000000">0..1</text>
</g>
</g>
</svg>
