<?xml version="1.0" encoding="UTF-8" standalone="no"?>
<!DOCTYPE svg PUBLIC "-//W3C//DTD SVG 1.1//EN"
 "http://www.w3.org/Graphics/SVG/1.1/DTD/svg11.dtd">
<!-- Generated by graphviz version 2.38.0 (20140413.2041)
 -->
<!-- Title: virtual_computer Pages: 1 -->
<svg width="371pt" height="161pt"
 viewBox="0.00 0.00 370.50 160.50" xmlns="http://www.w3.org/2000/svg" xmlns:xlink="http://www.w3.org/1999/xlink">
<g id="graph0" class="graph" transform="scale(1 1) rotate(0) translate(4 156.5)">
<title>virtual_computer</title>
<polygon fill="white" stroke="none" points="-4,4 -4,-156.5 366.5,-156.5 366.5,4 -4,4"/>
<!-- Compiler -->
<g id="node1" class="node"><title>Compiler</title>
<polygon fill="none" stroke="black" points="68,-152.5 0,-152.5 0,-116.5 68,-116.5 68,-152.5"/>
<text text-anchor="middle" x="34" y="-130.8" font-family="Times,serif" font-size="14.00">Compiler</text>
</g>
<!-- Device -->
<g id="node2" class="node"><title>Device</title>
<polygon fill="none" stroke="black" points="265.5,-43.5 210.5,-43.5 210.5,-7.5 265.5,-7.5 265.5,-43.5"/>
<text text-anchor="middle" x="238" y="-21.8" font-family="Times,serif" font-size="14.00">Device</text>
</g>
<!-- Compiler&#45;&#45;Device -->
<g id="edge1" class="edge"><title>Compiler&#45;&#45;Device</title>
<path fill="none" stroke="black" d="M66.7761,-116.309C106.534,-95.4551 172.86,-60.6665 210.221,-41.0706"/>
<text text-anchor="middle" x="195.063" y="-57.2515" font-family="Times,serif" font-size="14.00">0..N</text>
<text text-anchor="middle" x="81.9337" y="-92.7277" font-family="Times,serif" font-size="14.00">0..1</text>
</g>
<!-- CPU -->
<g id="node3" class="node"><title>CPU</title>
<polygon fill="none" stroke="black" points="67,-43.5 13,-43.5 13,-7.5 67,-7.5 67,-43.5"/>
<text text-anchor="middle" x="40" y="-21.8" font-family="Times,serif" font-size="14.00">CPU</text>
</g>
<!-- Compiler&#45;&#45;CPU -->
<g id="edge2" class="edge"><title>Compiler&#45;&#45;CPU</title>
<path fill="none" stroke="black" d="M34.964,-116.309C36.0837,-96.3412 37.9197,-63.5979 39.0384,-43.6487"/>
<text text-anchor="middle" x="28.0384" y="-47.4487" font-family="Times,serif" font-size="14.00">0..1</text>
<text text-anchor="middle" x="23.964" y="-105.109" font-family="Times,serif" font-size="14.00">0..1</text>
</g>
<!-- Memory -->
<g id="node4" class="node"><title>Memory</title>
<polygon fill="none" stroke="black" points="276.5,-152.5 211.5,-152.5 211.5,-116.5 276.5,-116.5 276.5,-152.5"/>
<text text-anchor="middle" x="244" y="-130.8" font-family="Times,serif" font-size="14.00">Memory</text>
</g>
<!-- Compiler&#45;&#45;Memory -->
<g id="edge3" class="edge"><title>Compiler&#45;&#45;Memory</title>
<path fill="none" stroke="black" d="M68.043,-134.5C115.813,-134.5 163.582,-134.5 211.352,-134.5"/>
<text text-anchor="middle" x="200.352" y="-138.3" font-family="Times,serif" font-size="14.00">0..1</text>
<text text-anchor="middle" x="79.043" y="-138.3" font-family="Times,serif" font-size="14.00">0..1</text>
</g>
<!-- Device&#45;&#45;Device -->
<g id="edge7" class="edge"><title>Device&#45;&#45;Device</title>
<path fill="none" stroke="black" d="M265.505,-32.7675C298.617,-38.2584 337.5,-35.8359 337.5,-25.5 337.5,-15.1641 298.617,-12.7416 265.505,-18.2325"/>
<text text-anchor="middle" x="350" y="-21.8" font-family="Times,serif" font-size="14.00">0..N</text>
</g>
<!-- CPU&#45;&#45;Device -->
<g id="edge5" class="edge"><title>CPU&#45;&#45;Device</title>
<path fill="none" stroke="black" d="M67.0703,-25.5C114.81,-25.5 162.551,-25.5 210.291,-25.5"/>
<text text-anchor="middle" x="197.791" y="-29.3" font-family="Times,serif" font-size="14.00">0..N</text>
<text text-anchor="middle" x="78.0703" y="-14.3" font-family="Times,serif" font-size="14.00">0..1</text>
</g>
<!-- CPU&#45;&#45;Memory -->
<g id="edge4" class="edge"><title>CPU&#45;&#45;Memory</title>
<path fill="none" stroke="black" d="M67.1473,-40.739C104.387,-60.2719 171.241,-95.337 211.224,-116.309"/>
<text text-anchor="middle" x="186.251" y="-111.441" font-family="Times,serif" font-size="14.00">0..1</text>
<text text-anchor="middle" x="92.12" y="-38.2068" font-family="Times,serif" font-size="14.00">0..1</text>
</g>
<!-- Memory&#45;&#45;Device -->
<g id="edge6" class="edge"><title>Memory&#45;&#45;Device</title>
<path fill="none" stroke="black" d="M243.036,-116.309C241.916,-96.3412 240.08,-63.5979 238.962,-43.6487"/>
<text text-anchor="middle" x="226.462" y="-47.4487" font-family="Times,serif" font-size="14.00">0..N</text>
<text text-anchor="middle" x="232.036" y="-105.109" font-family="Times,serif" font-size="14.00">0..1</text>
</g>
</g>
</svg>
