<?xml version="1.0" encoding="UTF-8" standalone="no"?>
<!DOCTYPE svg PUBLIC "-//W3C//DTD SVG 1.1//EN"
 "http://www.w3.org/Graphics/SVG/1.1/DTD/svg11.dtd">
<!-- Generated by graphviz version 2.38.0 (20140413.2041)
 -->
<!-- Title: emulation_states Pages: 1 -->
<svg width="252pt" height="226pt"
 viewBox="0.00 0.00 251.50 226.00" xmlns="http://www.w3.org/2000/svg" xmlns:xlink="http://www.w3.org/1999/xlink">
<g id="graph0" class="graph" transform="scale(1 1) rotate(0) translate(4 222)">
<title>emulation_states</title>
<polygon fill="white" stroke="none" points="-4,4 -4,-222 247.5,-222 247.5,4 -4,4"/>
<!-- breakpoint -->
<g id="node1" class="node"><title>breakpoint</title>
<polygon fill="lightgrey" stroke="black" points="122,-218 45,-218 45,-182 122,-182 122,-218"/>
<text text-anchor="middle" x="83.5" y="-196.3" font-family="Times,serif" font-size="14.00">breakpoint</text>
</g>
<!-- breakpoint&#45;&gt;breakpoint -->
<g id="edge3" class="edge"><title>breakpoint&#45;&gt;breakpoint:w</title>
<path fill="none" stroke="black" d="M44.9448,-207.806C34.7338,-207.36 27,-204.758 27,-200 27,-193.109 32.168,-190.741 37.2754,-192.894"/>
<polygon fill="black" stroke="black" points="34.9163,-195.483 44.5,-200 39.8249,-190.492 34.9163,-195.483"/>
<text text-anchor="middle" x="13.5" y="-196.3" font-family="Times,serif" font-size="14.00">step </text>
</g>
<!-- stopped -->
<g id="node2" class="node"><title>stopped</title>
<polygon fill="none" stroke="black" points="171.334,-14.5442 171.334,-29.4558 146.242,-40 110.758,-40 85.6664,-29.4558 85.6664,-14.5442 110.758,-4 146.242,-4 171.334,-14.5442"/>
<polygon fill="none" stroke="black" points="175.326,-11.8843 175.326,-32.1157 147.046,-44 109.954,-44 81.6738,-32.1157 81.6738,-11.8843 109.954,-3.55271e-15 147.046,-0 175.326,-11.8843"/>
<text text-anchor="middle" x="128.5" y="-18.3" font-family="Times,serif" font-size="14.00">stopped</text>
</g>
<!-- breakpoint&#45;&gt;stopped -->
<g id="edge2" class="edge"><title>breakpoint&#45;&gt;stopped</title>
<path fill="none" stroke="black" d="M74.0142,-181.931C63.6456,-160.905 49.9493,-124.368 61.5,-95 68.5528,-77.0678 82.4075,-60.954 95.6965,-48.5401"/>
<polygon fill="black" stroke="black" points="98.2644,-50.9397 103.4,-41.6727 93.6063,-45.7146 98.2644,-50.9397"/>
<text text-anchor="middle" x="75.5" y="-109.3" font-family="Times,serif" font-size="14.00">stop </text>
</g>
<!-- running -->
<g id="node3" class="node"><title>running</title>
<polygon fill="none" stroke="black" points="158,-131 99,-131 99,-95 158,-95 158,-131"/>
<text text-anchor="middle" x="128.5" y="-109.3" font-family="Times,serif" font-size="14.00">running</text>
</g>
<!-- breakpoint&#45;&gt;running -->
<g id="edge1" class="edge"><title>breakpoint&#45;&gt;running</title>
<path fill="none" stroke="black" d="M81.2952,-181.638C80.8102,-171.726 81.5602,-159.351 86.5,-149.5 88.5288,-145.454 91.2465,-141.689 94.3283,-138.24"/>
<polygon fill="black" stroke="black" points="96.8211,-140.698 101.531,-131.207 91.9306,-135.69 96.8211,-140.698"/>
<text text-anchor="middle" x="97.5" y="-153.3" font-family="Times,serif" font-size="14.00">run </text>
</g>
<!-- stopped&#45;&gt;breakpoint -->
<g id="edge6" class="edge"><title>stopped&#45;&gt;breakpoint</title>
<path fill="none" stroke="black" d="M165.708,-36.2501C177.346,-42.3557 188.869,-50.8927 195.5,-62.5 218.015,-101.91 218.262,-128.593 190.5,-164.5 176.638,-182.429 153.339,-191.192 132.015,-195.414"/>
<polygon fill="black" stroke="black" points="131.353,-191.977 122.078,-197.097 132.522,-198.878 131.353,-191.977"/>
<text text-anchor="middle" x="228" y="-109.3" font-family="Times,serif" font-size="14.00">reset </text>
</g>
<!-- running&#45;&gt;breakpoint -->
<g id="edge5" class="edge"><title>running&#45;&gt;breakpoint</title>
<path fill="none" stroke="black" d="M122.857,-131.315C119.309,-141.294 114.309,-153.919 108.5,-164.5 106.898,-167.418 105.087,-170.376 103.19,-173.27"/>
<polygon fill="black" stroke="black" points="100.195,-171.446 97.3616,-181.655 105.943,-175.441 100.195,-171.446"/>
<text text-anchor="middle" x="151.5" y="-153.3" font-family="Times,serif" font-size="14.00">pause, reset </text>
</g>
<!-- running&#45;&gt;stopped -->
<g id="edge4" class="edge"><title>running&#45;&gt;stopped</title>
<path fill="none" stroke="black" d="M128.5,-94.8399C128.5,-83.4407 128.5,-68.1336 128.5,-54.5781"/>
<polygon fill="black" stroke="black" points="132,-54.1905 128.5,-44.1905 125,-54.1906 132,-54.1905"/>
<text text-anchor="middle" x="160" y="-66.3" font-family="Times,serif" font-size="14.00">stop, error </text>
</g>
</g>
</svg>
