<?xml version="1.0" encoding="UTF-8" standalone="no"?>
<!DOCTYPE svg PUBLIC "-//W3C//DTD SVG 1.1//EN"
 "http://www.w3.org/Graphics/SVG/1.1/DTD/svg11.dtd">
<!-- Generated by graphviz version 2.40.1 (20161225.0304)
 -->
<!-- Title: emulation_states Pages: 1 -->
<svg width="244pt" height="226pt"
 viewBox="0.00 0.00 244.00 226.00" xmlns="http://www.w3.org/2000/svg" xmlns:xlink="http://www.w3.org/1999/xlink">
<g id="graph0" class="graph" transform="scale(1 1) rotate(0) translate(4 222)">
<title>emulation_states</title>
<polygon fill="#ffffff" stroke="transparent" points="-4,4 -4,-222 240,-222 240,4 -4,4"/>
<!-- breakpoint -->
<g id="node1" class="node">
<title>breakpoint</title>
<polygon fill="#d3d3d3" stroke="#000000" points="118,-218 44,-218 44,-182 118,-182 118,-218"/>
<text text-anchor="middle" x="81" y="-196.3" font-family="Times,serif" font-size="14.00" fill="#000000">breakpoint</text>
</g>
<!-- breakpoint&#45;&gt;breakpoint -->
<g id="edge3" class="edge">
<title>breakpoint&#45;&gt;breakpoint:w</title>
<path fill="none" stroke="#000000" d="M43.9847,-207.8269C33.7903,-207.4488 26,-204.8398 26,-200 26,-192.9453 31.417,-190.6305 36.7917,-193.0555"/>
<polygon fill="#000000" stroke="#000000" points="34.37,-195.5825 44,-200 39.2266,-190.5414 34.37,-195.5825"/>
<text text-anchor="middle" x="13" y="-196.3" font-family="Times,serif" font-size="14.00" fill="#000000">step </text>
</g>
<!-- stopped -->
<g id="node2" class="node">
<title>stopped</title>
<polygon fill="none" stroke="#000000" points="166.5116,-14.5442 166.5116,-29.4558 142.1947,-40 107.8053,-40 83.4884,-29.4558 83.4884,-14.5442 107.8053,-4 142.1947,-4 166.5116,-14.5442"/>
<polygon fill="none" stroke="#000000" points="170.5121,-11.9189 170.5121,-32.0811 143.0248,-44 106.9752,-44 79.4879,-32.0811 79.4879,-11.9189 106.9752,0 143.0248,0 170.5121,-11.9189"/>
<text text-anchor="middle" x="125" y="-18.3" font-family="Times,serif" font-size="14.00" fill="#000000">stopped</text>
</g>
<!-- breakpoint&#45;&gt;stopped -->
<g id="edge2" class="edge">
<title>breakpoint&#45;&gt;stopped</title>
<path fill="none" stroke="#000000" d="M71.3227,-181.6552C61.4048,-160.2865 48.8885,-124.188 60,-95 66.7628,-77.2352 80.0522,-61.0402 92.8618,-48.4425"/>
<polygon fill="#000000" stroke="#000000" points="95.4055,-50.855 100.2956,-41.4562 90.6116,-45.7541 95.4055,-50.855"/>
<text text-anchor="middle" x="73.5" y="-109.3" font-family="Times,serif" font-size="14.00" fill="#000000">stop </text>
</g>
<!-- running -->
<g id="node3" class="node">
<title>running</title>
<polygon fill="none" stroke="#000000" points="154.5,-131 95.5,-131 95.5,-95 154.5,-95 154.5,-131"/>
<text text-anchor="middle" x="125" y="-109.3" font-family="Times,serif" font-size="14.00" fill="#000000">running</text>
</g>
<!-- breakpoint&#45;&gt;running -->
<g id="edge1" class="edge">
<title>breakpoint&#45;&gt;running</title>
<path fill="none" stroke="#000000" d="M79.2788,-181.8586C79.0842,-171.8427 80.1293,-159.4537 85,-149.5 86.9059,-145.6051 89.4236,-141.9288 92.2707,-138.5188"/>
<polygon fill="#000000" stroke="#000000" points="95.0086,-140.7193 99.3788,-131.0678 89.9437,-135.8874 95.0086,-140.7193"/>
<text text-anchor="middle" x="96" y="-153.3" font-family="Times,serif" font-size="14.00" fill="#000000">run </text>
</g>
<!-- stopped&#45;&gt;breakpoint -->
<g id="edge6" class="edge">
<title>stopped&#45;&gt;breakpoint</title>
<path fill="none" stroke="#000000" d="M161.4892,-36.2201C172.6678,-42.5026 183.6755,-51.1077 190,-62.5 212.03,-102.1828 212.4547,-128.3574 185,-164.5 177.6717,-174.1473 152.0185,-182.9596 128.0259,-189.3911"/>
<polygon fill="#000000" stroke="#000000" points="127.0655,-186.0242 118.2559,-191.9099 128.813,-192.8026 127.0655,-186.0242"/>
<text text-anchor="middle" x="221" y="-109.3" font-family="Times,serif" font-size="14.00" fill="#000000">reset </text>
</g>
<!-- running&#45;&gt;breakpoint -->
<g id="edge5" class="edge">
<title>running&#45;&gt;breakpoint</title>
<path fill="none" stroke="#000000" d="M120.0866,-131.1824C117.0024,-141.297 112.5551,-153.9379 107,-164.5 105.4353,-167.475 103.6404,-170.476 101.7407,-173.4062"/>
<polygon fill="#000000" stroke="#000000" points="98.6802,-171.6773 95.8523,-181.8878 104.4303,-175.6694 98.6802,-171.6773"/>
<text text-anchor="middle" x="147" y="-153.3" font-family="Times,serif" font-size="14.00" fill="#000000">pause, reset </text>
</g>
<!-- running&#45;&gt;stopped -->
<g id="edge4" class="edge">
<title>running&#45;&gt;stopped</title>
<path fill="none" stroke="#000000" d="M125,-94.5848C125,-83.1105 125,-68.0231 125,-54.5774"/>
<polygon fill="#000000" stroke="#000000" points="128.5001,-54.2465 125,-44.2465 121.5001,-54.2466 128.5001,-54.2465"/>
<text text-anchor="middle" x="155.5" y="-66.3" font-family="Times,serif" font-size="14.00" fill="#000000">stop, error </text>
</g>
</g>
</svg>
