<?xml version="1.0" encoding="UTF-8" standalone="no"?>
<!DOCTYPE svg PUBLIC "-//W3C//DTD SVG 1.1//EN"
 "http://www.w3.org/Graphics/SVG/1.1/DTD/svg11.dtd">
<!-- Generated by graphviz version 2.38.0 (20140413.2041)
 -->
<!-- Title: emulation_states Pages: 1 -->
<svg width="246pt" height="226pt"
 viewBox="0.00 0.00 246.00 226.00" xmlns="http://www.w3.org/2000/svg" xmlns:xlink="http://www.w3.org/1999/xlink">
<g id="graph0" class="graph" transform="scale(1 1) rotate(0) translate(4 222)">
<title>emulation_states</title>
<polygon fill="white" stroke="none" points="-4,4 -4,-222 242,-222 242,4 -4,4"/>
<!-- breakpoint -->
<g id="node1" class="node"><title>breakpoint</title>
<polygon fill="lightgrey" stroke="black" points="118,-218 44,-218 44,-182 118,-182 118,-218"/>
<text text-anchor="middle" x="81" y="-196.3" font-family="Times,serif" font-size="14.00">breakpoint</text>
</g>
<!-- breakpoint&#45;&gt;breakpoint -->
<g id="edge3" class="edge"><title>breakpoint&#45;&gt;breakpoint:w</title>
<path fill="none" stroke="black" d="M43.9847,-207.827C33.7903,-207.449 26,-204.84 26,-200 26,-192.945 31.417,-190.63 36.7917,-193.056"/>
<polygon fill="black" stroke="black" points="34.37,-195.583 44,-200 39.2266,-190.541 34.37,-195.583"/>
<text text-anchor="middle" x="13" y="-196.3" font-family="Times,serif" font-size="14.00">step </text>
</g>
<!-- stopped -->
<g id="node2" class="node"><title>stopped</title>
<polygon fill="none" stroke="black" points="166.512,-14.5442 166.512,-29.4558 142.195,-40 107.805,-40 83.4884,-29.4558 83.4884,-14.5442 107.805,-4 142.195,-4 166.512,-14.5442"/>
<polygon fill="none" stroke="black" points="170.512,-11.9189 170.512,-32.0811 143.025,-44 106.975,-44 79.4879,-32.0811 79.4879,-11.9189 106.975,-3.55271e-15 143.025,-0 170.512,-11.9189"/>
<text text-anchor="middle" x="125" y="-18.3" font-family="Times,serif" font-size="14.00">stopped</text>
</g>
<!-- breakpoint&#45;&gt;stopped -->
<g id="edge2" class="edge"><title>breakpoint&#45;&gt;stopped</title>
<path fill="none" stroke="black" d="M71.5507,-181.945C61.2187,-160.934 47.5594,-124.411 59,-95 65.9888,-77.0333 79.7866,-60.8247 92.9674,-48.356"/>
<polygon fill="black" stroke="black" points="95.5255,-50.7619 100.601,-41.4617 90.8336,-45.567 95.5255,-50.7619"/>
<text text-anchor="middle" x="72.5" y="-109.3" font-family="Times,serif" font-size="14.00">stop </text>
</g>
<!-- running -->
<g id="node3" class="node"><title>running</title>
<polygon fill="none" stroke="black" points="154.5,-131 95.5,-131 95.5,-95 154.5,-95 154.5,-131"/>
<text text-anchor="middle" x="125" y="-109.3" font-family="Times,serif" font-size="14.00">running</text>
</g>
<!-- breakpoint&#45;&gt;running -->
<g id="edge1" class="edge"><title>breakpoint&#45;&gt;running</title>
<path fill="none" stroke="black" d="M79.7705,-181.656C79.7774,-171.75 81.0274,-159.375 86,-149.5 87.9458,-145.636 90.5018,-141.989 93.3767,-138.611"/>
<polygon fill="black" stroke="black" points="96.0763,-140.855 100.526,-131.239 91.0513,-135.981 96.0763,-140.855"/>
<text text-anchor="middle" x="97" y="-153.3" font-family="Times,serif" font-size="14.00">run </text>
</g>
<!-- stopped&#45;&gt;breakpoint -->
<g id="edge6" class="edge"><title>stopped&#45;&gt;breakpoint</title>
<path fill="none" stroke="black" d="M160.782,-36.3056C172.192,-42.4458 183.526,-50.9907 190,-62.5 212.234,-102.029 214.277,-128.267 187,-164.5 173.234,-182.786 149.563,-191.54 128.078,-195.666"/>
<polygon fill="black" stroke="black" points="127.388,-192.232 118.082,-197.297 128.516,-199.141 127.388,-192.232"/>
<text text-anchor="middle" x="223" y="-109.3" font-family="Times,serif" font-size="14.00">reset </text>
</g>
<!-- running&#45;&gt;breakpoint -->
<g id="edge5" class="edge"><title>running&#45;&gt;breakpoint</title>
<path fill="none" stroke="black" d="M120.714,-131.433C117.868,-141.452 113.618,-154.077 108,-164.5 106.325,-167.607 104.37,-170.721 102.292,-173.738"/>
<polygon fill="black" stroke="black" points="99.3875,-171.779 96.2381,-181.895 105.008,-175.951 99.3875,-171.779"/>
<text text-anchor="middle" x="149" y="-153.3" font-family="Times,serif" font-size="14.00">pause, reset </text>
</g>
<!-- running&#45;&gt;stopped -->
<g id="edge4" class="edge"><title>running&#45;&gt;stopped</title>
<path fill="none" stroke="black" d="M125,-94.8399C125,-83.4407 125,-68.1336 125,-54.5781"/>
<polygon fill="black" stroke="black" points="128.5,-54.1905 125,-44.1905 121.5,-54.1906 128.5,-54.1905"/>
<text text-anchor="middle" x="155.5" y="-66.3" font-family="Times,serif" font-size="14.00">stop, error </text>
</g>
</g>
</svg>
