<?xml version="1.0" encoding="UTF-8" standalone="no"?>
<!DOCTYPE svg PUBLIC "-//W3C//DTD SVG 1.1//EN"
 "http://www.w3.org/Graphics/SVG/1.1/DTD/svg11.dtd">
<!-- Generated by graphviz version 2.38.0 (20140413.2041)
 -->
<!-- Title: ssem_cpu_architecture Pages: 1 -->
<svg width="303pt" height="227pt"
 viewBox="0.00 0.00 303.00 227.00" xmlns="http://www.w3.org/2000/svg" xmlns:xlink="http://www.w3.org/1999/xlink">
<g id="graph0" class="graph" transform="scale(1 1) rotate(0) translate(4 223)">
<title>ssem_cpu_architecture</title>
<polygon fill="white" stroke="none" points="-4,4 -4,-223 299,-223 299,4 -4,4"/>
<g id="clust1" class="cluster"><title>clustercpu</title>
<polygon fill="lightgrey" stroke="lightgrey" points="8,-64 8,-211 287,-211 287,-64 8,-64"/>
<text text-anchor="start" x="111" y="-196.8" font-family="Times,serif" font-weight="bold" font-size="14.00">SSEM CPU</text>
</g>
<!-- CI -->
<g id="node1" class="node"><title>CI</title>
<polygon fill="none" stroke="black" points="180,-180 126,-180 126,-144 180,-144 180,-180"/>
<text text-anchor="middle" x="153" y="-158.3" font-family="Times,serif" font-size="14.00">CI</text>
</g>
<!-- ACC -->
<g id="node2" class="node"><title>ACC</title>
<polygon fill="none" stroke="black" points="107.5,-180 16.5,-180 16.5,-144 107.5,-144 107.5,-180"/>
<text text-anchor="middle" x="62" y="-158.3" font-family="Times,serif" font-size="14.00">Accumulator</text>
</g>
<!-- E -->
<g id="node3" class="node"><title>E</title>
<polygon fill="none" stroke="black" points="73.5,-108 16.5,-108 16.5,-72 73.5,-72 73.5,-108"/>
<text text-anchor="middle" x="45" y="-86.3" font-family="Times,serif" font-size="14.00">Engine</text>
</g>
<!-- E&#45;&gt;CI -->
<g id="edge1" class="edge"><title>E&#45;&gt;CI</title>
<path fill="none" stroke="black" d="M71.5213,-108.19C85.5279,-117.268 102.897,-128.526 117.995,-138.312"/>
<polygon fill="black" stroke="black" points="116.285,-141.374 126.58,-143.876 120.092,-135.5 116.285,-141.374"/>
</g>
<!-- E&#45;&gt;ACC -->
<g id="edge2" class="edge"><title>E&#45;&gt;ACC</title>
<path fill="none" stroke="black" d="M49.1539,-108.104C51.0412,-115.876 53.3197,-125.257 55.4304,-133.949"/>
<polygon fill="black" stroke="black" points="52.0366,-134.805 57.7978,-143.697 58.8388,-133.153 52.0366,-134.805"/>
</g>
<!-- M -->
<g id="node6" class="node"><title>M</title>
<polygon fill="lightgrey" stroke="black" points="173.5,-36 104.5,-36 104.5,-0 173.5,-0 173.5,-36"/>
<text text-anchor="start" x="112.5" y="-15.3" font-family="Times,serif" font-weight="bold" font-size="14.00">Memory</text>
</g>
<!-- E&#45;&gt;M -->
<g id="edge6" class="edge"><title>E&#45;&gt;M</title>
<path fill="none" stroke="black" d="M68.236,-71.6966C80.1883,-62.796 94.9231,-51.8232 107.847,-42.1989"/>
<polygon fill="black" stroke="black" points="110.101,-44.8842 116.031,-36.1043 105.92,-39.2699 110.101,-44.8842"/>
</g>
<!-- D -->
<g id="node4" class="node"><title>D</title>
<polygon fill="none" stroke="black" points="279,-108 187,-108 187,-72 279,-72 279,-108"/>
<text text-anchor="middle" x="233" y="-86.3" font-family="Times,serif" font-size="14.00">Disassembler</text>
</g>
<!-- D&#45;&gt;M -->
<g id="edge5" class="edge"><title>D&#45;&gt;M</title>
<path fill="none" stroke="black" d="M209.764,-71.6966C197.812,-62.796 183.077,-51.8232 170.153,-42.1989"/>
<polygon fill="black" stroke="black" points="172.08,-39.2699 161.969,-36.1043 167.899,-44.8842 172.08,-39.2699"/>
</g>
<!-- P -->
<g id="node5" class="node"><title>P</title>
<polygon fill="none" stroke="black" points="168.5,-108 91.5,-108 91.5,-72 168.5,-72 168.5,-108"/>
<text text-anchor="middle" x="130" y="-86.3" font-family="Times,serif" font-size="14.00">GUI Panel</text>
</g>
<!-- P&#45;&gt;CI -->
<g id="edge3" class="edge"><title>P&#45;&gt;CI</title>
<path fill="none" stroke="black" d="M135.62,-108.104C138.173,-115.876 141.256,-125.257 144.112,-133.949"/>
<polygon fill="black" stroke="black" points="140.868,-135.289 147.315,-143.697 147.518,-133.104 140.868,-135.289"/>
</g>
<!-- P&#45;&gt;ACC -->
<g id="edge4" class="edge"><title>P&#45;&gt;ACC</title>
<path fill="none" stroke="black" d="M113.384,-108.104C105.096,-116.636 94.9232,-127.108 85.8218,-136.478"/>
<polygon fill="black" stroke="black" points="83.2664,-134.085 78.809,-143.697 88.2874,-138.963 83.2664,-134.085"/>
</g>
<!-- DIS -->
<g id="node7" class="node"><title>DIS</title>
<polygon fill="lightgrey" stroke="black" points="86,-36 24,-36 24,-0 86,-0 86,-36"/>
<text text-anchor="start" x="32" y="-15.3" font-family="Times,serif" font-weight="bold" font-size="14.00">Display</text>
</g>
<!-- DIS&#45;&gt;M -->
<g id="edge7" class="edge"><title>DIS&#45;&gt;M</title>
<path fill="none" stroke="black" d="M86.1719,-18C88.8202,-18 91.4684,-18 94.1167,-18"/>
<polygon fill="black" stroke="black" points="94.3316,-21.5001 104.332,-18 94.3315,-14.5001 94.3316,-21.5001"/>
</g>
</g>
</svg>
