<?xml version="1.0" encoding="UTF-8" standalone="no"?>
<!DOCTYPE svg PUBLIC "-//W3C//DTD SVG 1.1//EN"
 "http://www.w3.org/Graphics/SVG/1.1/DTD/svg11.dtd">
<!-- Generated by graphviz version 2.38.0 (20140413.2041)
 -->
<!-- Title: ssem_cpu_architecture Pages: 1 -->
<svg width="296pt" height="227pt"
 viewBox="0.00 0.00 296.00 227.00" xmlns="http://www.w3.org/2000/svg" xmlns:xlink="http://www.w3.org/1999/xlink">
<g id="graph0" class="graph" transform="scale(1 1) rotate(0) translate(4 223)">
<title>ssem_cpu_architecture</title>
<polygon fill="white" stroke="none" points="-4,4 -4,-223 292,-223 292,4 -4,4"/>
<g id="clust1" class="cluster"><title>clustercpu</title>
<polygon fill="lightgrey" stroke="lightgrey" points="8,-64 8,-211 280,-211 280,-64 8,-64"/>
<text text-anchor="start" x="109" y="-196.8" font-family="Times,serif" font-weight="bold" font-size="14.00">SSEM CPU</text>
</g>
<!-- CI -->
<g id="node1" class="node"><title>CI</title>
<polygon fill="none" stroke="black" points="176,-180 122,-180 122,-144 176,-144 176,-180"/>
<text text-anchor="middle" x="149" y="-158.3" font-family="Times,serif" font-size="14.00">CI</text>
</g>
<!-- ACC -->
<g id="node2" class="node"><title>ACC</title>
<polygon fill="none" stroke="black" points="104,-180 16,-180 16,-144 104,-144 104,-180"/>
<text text-anchor="middle" x="60" y="-158.3" font-family="Times,serif" font-size="14.00">Accumulator</text>
</g>
<!-- E -->
<g id="node3" class="node"><title>E</title>
<polygon fill="none" stroke="black" points="71.5,-108 16.5,-108 16.5,-72 71.5,-72 71.5,-108"/>
<text text-anchor="middle" x="44" y="-86.3" font-family="Times,serif" font-size="14.00">Engine</text>
</g>
<!-- E&#45;&gt;CI -->
<g id="edge1" class="edge"><title>E&#45;&gt;CI</title>
<path fill="none" stroke="black" d="M69.7846,-108.19C83.4021,-117.268 100.289,-128.526 114.968,-138.312"/>
<polygon fill="black" stroke="black" points="113.052,-141.241 123.314,-143.876 116.935,-135.417 113.052,-141.241"/>
</g>
<!-- E&#45;&gt;ACC -->
<g id="edge2" class="edge"><title>E&#45;&gt;ACC</title>
<path fill="none" stroke="black" d="M47.9096,-108.104C49.6666,-115.791 51.7837,-125.054 53.752,-133.665"/>
<polygon fill="black" stroke="black" points="50.4046,-134.728 56.0449,-143.697 57.2286,-133.168 50.4046,-134.728"/>
</g>
<!-- M -->
<g id="node6" class="node"><title>M</title>
<polygon fill="lightgrey" stroke="black" points="170,-36 102,-36 102,-0 170,-0 170,-36"/>
<text text-anchor="start" x="110" y="-15.3" font-family="Times,serif" font-weight="bold" font-size="14.00">Memory</text>
</g>
<!-- E&#45;&gt;M -->
<g id="edge6" class="edge"><title>E&#45;&gt;M</title>
<path fill="none" stroke="black" d="M66.7416,-71.6966C78.4396,-62.796 92.8609,-51.8232 105.51,-42.1989"/>
<polygon fill="black" stroke="black" points="107.681,-44.945 113.52,-36.1043 103.442,-39.3742 107.681,-44.945"/>
</g>
<!-- D -->
<g id="node4" class="node"><title>D</title>
<polygon fill="none" stroke="black" points="272,-108 182,-108 182,-72 272,-72 272,-108"/>
<text text-anchor="middle" x="227" y="-86.3" font-family="Times,serif" font-size="14.00">Disassembler</text>
</g>
<!-- D&#45;&gt;M -->
<g id="edge5" class="edge"><title>D&#45;&gt;M</title>
<path fill="none" stroke="black" d="M204.506,-71.6966C193.045,-62.8807 178.942,-52.0321 166.516,-42.4742"/>
<polygon fill="black" stroke="black" points="168.296,-39.4273 158.236,-36.1043 164.028,-44.9757 168.296,-39.4273"/>
</g>
<!-- P -->
<g id="node5" class="node"><title>P</title>
<polygon fill="none" stroke="black" points="164,-108 90,-108 90,-72 164,-72 164,-108"/>
<text text-anchor="middle" x="127" y="-86.3" font-family="Times,serif" font-size="14.00">GUI Panel</text>
</g>
<!-- P&#45;&gt;CI -->
<g id="edge3" class="edge"><title>P&#45;&gt;CI</title>
<path fill="none" stroke="black" d="M132.376,-108.104C134.818,-115.876 137.767,-125.257 140.498,-133.949"/>
<polygon fill="black" stroke="black" points="137.224,-135.206 143.562,-143.697 143.902,-133.107 137.224,-135.206"/>
</g>
<!-- P&#45;&gt;ACC -->
<g id="edge4" class="edge"><title>P&#45;&gt;ACC</title>
<path fill="none" stroke="black" d="M110.629,-108.104C102.544,-116.552 92.6374,-126.901 83.7382,-136.199"/>
<polygon fill="black" stroke="black" points="80.9479,-134.052 76.5618,-143.697 86.0049,-138.893 80.9479,-134.052"/>
</g>
<!-- DIS -->
<g id="node7" class="node"><title>DIS</title>
<polygon fill="lightgrey" stroke="black" points="84,-36 24,-36 24,-0 84,-0 84,-36"/>
<text text-anchor="start" x="32" y="-15.3" font-family="Times,serif" font-weight="bold" font-size="14.00">Display</text>
</g>
<!-- DIS&#45;&gt;M -->
<g id="edge7" class="edge"><title>DIS&#45;&gt;M</title>
<path fill="none" stroke="black" d="M84.1094,-18C86.7107,-18 89.312,-18 91.9132,-18"/>
<polygon fill="black" stroke="black" points="91.9468,-21.5001 101.947,-18 91.9467,-14.5001 91.9468,-21.5001"/>
</g>
</g>
</svg>
