<?xml version="1.0" encoding="UTF-8" standalone="no"?>
<!DOCTYPE svg PUBLIC "-//W3C//DTD SVG 1.1//EN"
 "http://www.w3.org/Graphics/SVG/1.1/DTD/svg11.dtd">
<!-- Generated by graphviz version 2.40.1 (20161225.0304)
 -->
<!-- Title: ssem_cpu_architecture Pages: 1 -->
<svg width="296pt" height="227pt"
 viewBox="0.00 0.00 296.00 227.00" xmlns="http://www.w3.org/2000/svg" xmlns:xlink="http://www.w3.org/1999/xlink">
<g id="graph0" class="graph" transform="scale(1 1) rotate(0) translate(4 223)">
<title>ssem_cpu_architecture</title>
<polygon fill="#ffffff" stroke="transparent" points="-4,4 -4,-223 292,-223 292,4 -4,4"/>
<g id="clust1" class="cluster">
<title>clustercpu</title>
<polygon fill="#d3d3d3" stroke="#d3d3d3" points="8,-64 8,-211 280,-211 280,-64 8,-64"/>
<text text-anchor="start" x="109" y="-196.8" font-family="Times,serif" font-weight="bold" font-size="14.00" fill="#000000">SSEM CPU</text>
</g>
<!-- CI -->
<g id="node1" class="node">
<title>CI</title>
<polygon fill="none" stroke="#000000" points="176,-180 122,-180 122,-144 176,-144 176,-180"/>
<text text-anchor="middle" x="149" y="-158.3" font-family="Times,serif" font-size="14.00" fill="#000000">CI</text>
</g>
<!-- ACC -->
<g id="node2" class="node">
<title>ACC</title>
<polygon fill="none" stroke="#000000" points="104,-180 16,-180 16,-144 104,-144 104,-180"/>
<text text-anchor="middle" x="60" y="-158.3" font-family="Times,serif" font-size="14.00" fill="#000000">Accumulator</text>
</g>
<!-- E -->
<g id="node3" class="node">
<title>E</title>
<polygon fill="none" stroke="#000000" points="71.5,-108 16.5,-108 16.5,-72 71.5,-72 71.5,-108"/>
<text text-anchor="middle" x="44" y="-86.3" font-family="Times,serif" font-size="14.00" fill="#000000">Engine</text>
</g>
<!-- E&#45;&gt;CI -->
<g id="edge1" class="edge">
<title>E&#45;&gt;CI</title>
<path fill="none" stroke="#000000" d="M70.4875,-108.1628C83.6676,-117.2007 99.7748,-128.2456 113.962,-137.9739"/>
<polygon fill="#000000" stroke="#000000" points="112.2774,-141.0626 122.5041,-143.8314 116.2361,-135.2895 112.2774,-141.0626"/>
</g>
<!-- E&#45;&gt;ACC -->
<g id="edge2" class="edge">
<title>E&#45;&gt;ACC</title>
<path fill="none" stroke="#000000" d="M48.0918,-108.4133C49.8098,-116.1442 51.8466,-125.3097 53.7454,-133.8545"/>
<polygon fill="#000000" stroke="#000000" points="50.3765,-134.8288 55.9625,-143.8314 57.2098,-133.3102 50.3765,-134.8288"/>
</g>
<!-- M -->
<g id="node6" class="node">
<title>M</title>
<polygon fill="#d3d3d3" stroke="#000000" points="169,-36 101,-36 101,0 169,0 169,-36"/>
<text text-anchor="start" x="109" y="-15.3" font-family="Times,serif" font-weight="bold" font-size="14.00" fill="#000000">Memory</text>
</g>
<!-- E&#45;&gt;M -->
<g id="edge6" class="edge">
<title>E&#45;&gt;M</title>
<path fill="none" stroke="#000000" d="M66.9631,-71.8314C78.1715,-62.9632 91.8209,-52.1637 103.9439,-42.5718"/>
<polygon fill="#000000" stroke="#000000" points="106.3737,-45.1125 112.0442,-36.1628 102.0303,-39.6229 106.3737,-45.1125"/>
</g>
<!-- D -->
<g id="node4" class="node">
<title>D</title>
<polygon fill="none" stroke="#000000" points="272,-108 182,-108 182,-72 272,-72 272,-108"/>
<text text-anchor="middle" x="227" y="-86.3" font-family="Times,serif" font-size="14.00" fill="#000000">Disassembler</text>
</g>
<!-- D&#45;&gt;M -->
<g id="edge5" class="edge">
<title>D&#45;&gt;M</title>
<path fill="none" stroke="#000000" d="M203.7845,-71.8314C192.453,-62.9632 178.6536,-52.1637 166.3973,-42.5718"/>
<polygon fill="#000000" stroke="#000000" points="168.2402,-39.5697 158.2081,-36.1628 163.926,-45.0822 168.2402,-39.5697"/>
</g>
<!-- P -->
<g id="node5" class="node">
<title>P</title>
<polygon fill="none" stroke="#000000" points="164,-108 90,-108 90,-72 164,-72 164,-108"/>
<text text-anchor="middle" x="127" y="-86.3" font-family="Times,serif" font-size="14.00" fill="#000000">GUI Panel</text>
</g>
<!-- P&#45;&gt;CI -->
<g id="edge3" class="edge">
<title>P&#45;&gt;CI</title>
<path fill="none" stroke="#000000" d="M132.6263,-108.4133C135.0145,-116.2292 137.8507,-125.5113 140.486,-134.136"/>
<polygon fill="#000000" stroke="#000000" points="137.179,-135.2906 143.4485,-143.8314 143.8734,-133.2451 137.179,-135.2906"/>
</g>
<!-- P&#45;&gt;ACC -->
<g id="edge4" class="edge">
<title>P&#45;&gt;ACC</title>
<path fill="none" stroke="#000000" d="M109.8654,-108.4133C101.9598,-116.9088 92.4423,-127.1366 83.8505,-136.3696"/>
<polygon fill="#000000" stroke="#000000" points="81.157,-134.1263 76.9069,-143.8314 86.2815,-138.895 81.157,-134.1263"/>
</g>
<!-- DIS -->
<g id="node7" class="node">
<title>DIS</title>
<polygon fill="#d3d3d3" stroke="#000000" points="83,-36 23,-36 23,0 83,0 83,-36"/>
<text text-anchor="start" x="31" y="-15.3" font-family="Times,serif" font-weight="bold" font-size="14.00" fill="#000000">Display</text>
</g>
<!-- DIS&#45;&gt;M -->
<g id="edge7" class="edge">
<title>DIS&#45;&gt;M</title>
<path fill="none" stroke="#000000" d="M83.1094,-18C85.7107,-18 88.312,-18 90.9132,-18"/>
<polygon fill="#000000" stroke="#000000" points="90.9468,-21.5001 100.9468,-18 90.9467,-14.5001 90.9468,-21.5001"/>
</g>
</g>
</svg>
